<svg width="176" height="32" viewBox="0 0 176 32" fill="none" xmlns="http://www.w3.org/2000/svg">
<path d="M171.088 24.5585C169.069 24.5585 167.968 23.1163 167.968 20.9399V12.2867H166.054V11.5787C168.335 10.8707 169.384 9.3761 170.144 7.59302H170.433V11.3165H174.104V12.2867H170.433L170.459 20.6253C170.459 22.1199 171.141 22.8541 172.373 22.8541C172.976 22.8541 173.868 22.6706 174.759 22.0412C174.104 23.4834 172.793 24.5585 171.088 24.5585Z" fill="white"/>
<path d="M160.04 24.5588C158.676 24.5588 157.024 24.1655 155.189 23.3001V20.3633H155.294C156.578 21.8579 158.23 23.6148 160.197 23.6148C161.456 23.6148 162.741 22.933 162.741 21.4646C162.741 20.0486 161.508 19.5242 159.358 18.79C156.736 17.8984 155.058 17.0069 155.058 14.9091C155.058 12.523 157.155 11.1594 159.882 11.1594C161.194 11.1594 162.846 11.5528 164.34 12.2607V14.9878H164.261C162.95 13.4145 161.456 12.0772 159.725 12.0772C158.414 12.0772 157.182 12.759 157.182 14.0176C157.182 15.4074 158.598 15.8007 160.722 16.5087C163.449 17.4264 164.786 18.5015 164.786 20.5731C164.786 23.2739 162.557 24.5588 160.04 24.5588Z" fill="white"/>
<path d="M147.005 24.5588C143.491 24.5588 140.633 22.0153 140.633 17.8198C140.633 13.6243 143.491 11.1594 147.005 11.1594C150.493 11.1594 153.403 13.6243 153.403 17.8198C153.403 22.0153 150.493 24.5588 147.005 24.5588ZM147.005 23.641C149.313 23.641 150.65 20.9664 150.65 17.8198C150.65 14.6994 149.313 12.051 147.005 12.051C144.698 12.051 143.387 14.6994 143.387 17.8198C143.387 20.9402 144.671 23.641 147.005 23.641Z" fill="white"/>
<path d="M126.585 5.5479V5.46924H133.927C137.572 5.46924 140.063 8.01276 140.063 11.2118C140.063 14.8304 136.916 17.0593 133.219 17.0593H129.758V20.6255C129.758 22.1463 130.151 23.641 130.308 24.2703V24.349H126.585V24.2703C126.742 23.641 127.136 22.1463 127.136 20.6255V9.19274C127.136 7.67187 126.742 6.17723 126.585 5.5479ZM132.957 16.0366C135.631 16.0366 137.257 13.834 137.257 11.2118C137.257 8.74697 135.789 6.49189 133.114 6.49189H129.758V16.0366H132.957Z" fill="white"/>
<path d="M119.088 24.5588C115.81 24.5588 112.952 22.0677 112.952 17.846C112.952 13.7816 115.574 11.1594 119.036 11.1594C122.549 11.1594 124.595 13.8341 124.595 17.4264H115.653C115.758 20.5468 117.253 22.8281 120.111 22.8281C121.579 22.8281 122.969 22.2775 124.49 20.8353L124.568 20.9139C123.677 22.9592 121.684 24.5588 119.088 24.5588ZM119.009 12.051C116.859 12.051 115.784 14.1749 115.679 16.7447L122.025 16.3513C121.92 13.8603 120.95 12.051 119.009 12.051Z" fill="white"/>
<path d="M100.489 29.0688L101.013 26.5515L101.092 26.5253C102.482 27.8888 104.553 28.5706 105.471 26.2631L106.1 24.6898L101.747 14.6993C101.118 13.3095 100.384 12.0509 99.7808 11.4215V11.3167H104.265V11.4215C104.002 12.0246 103.845 13.3095 104.422 14.6468L107.359 21.4907L110.06 14.673C110.584 13.3357 110.348 12.0246 110.112 11.4215V11.3167H112.708V11.4215C112.446 11.7886 111.817 12.8375 111.345 13.9913L106.31 26.7089C105.13 29.6719 103.058 30.1439 100.489 29.0688Z" fill="white"/>
<path d="M93.8903 24.5588C90.6126 24.5588 87.7544 22.0677 87.7544 17.846C87.7544 13.7816 90.3766 11.1594 93.8379 11.1594C97.3516 11.1594 99.3969 13.8341 99.3969 17.4264H90.4552C90.5601 20.5468 92.0548 22.8281 94.913 22.8281C96.3814 22.8281 97.7711 22.2775 99.292 20.8353L99.3707 20.9139C98.4791 22.9592 96.4863 24.5588 93.8903 24.5588ZM93.8116 12.051C91.6614 12.051 90.5864 14.1749 90.4815 16.7447L96.8271 16.3513C96.7223 13.8603 95.7521 12.051 93.8116 12.051Z" fill="white"/>
<path d="M81.4001 24.5588C80.0366 24.5588 78.3846 24.1655 76.5491 23.3001V20.3633H76.654C77.9388 21.8579 79.5908 23.6148 81.5575 23.6148C82.8161 23.6148 84.101 22.933 84.101 21.4646C84.101 20.0486 82.8685 19.5242 80.7184 18.79C78.0962 17.8984 76.418 17.0069 76.418 14.9091C76.418 12.523 78.5157 11.1594 81.2428 11.1594C82.5539 11.1594 84.2059 11.5528 85.7005 12.2607V14.9878H85.6218C84.3107 13.4145 82.8161 12.0772 81.0855 12.0772C79.7744 12.0772 78.5419 12.759 78.5419 14.0176C78.5419 15.4074 79.9579 15.8007 82.0819 16.5087C84.809 17.4264 86.1463 18.5015 86.1463 20.5731C86.1463 23.2739 83.9174 24.5588 81.4001 24.5588Z" fill="white"/>
<path d="M72.0083 24.349C71.8248 23.6673 71.5626 23.1691 71.4315 22.3037C70.3564 23.9033 68.8879 24.5588 67.3671 24.5588C64.5351 24.5588 62.1489 22.2251 62.1489 17.9771C62.1489 13.4408 64.8236 11.1857 67.6555 11.1857C69.0977 11.1857 70.435 11.7888 71.3266 13.0212V8.9306C71.3266 7.40973 70.8284 5.99375 70.5661 5.41687V5.31198L71.2217 5.23332L73.8176 4.86621V20.6255C73.8176 22.1464 74.211 23.641 74.3421 24.2704V24.349H72.0083ZM64.8498 17.846C64.8498 20.6518 65.8986 23.1953 68.2848 23.1953C69.5173 23.1953 70.4875 22.4873 71.3528 21.4646C71.3528 21.3073 71.3266 21.1237 71.3266 20.9402V13.9914C70.6186 13.2048 69.6746 12.6017 68.4946 12.6017C66.2395 12.6017 64.8498 14.6994 64.8498 17.846Z" fill="white"/>
<path d="M56.5538 24.2701V24.3487H53.04V24.2701C53.1711 23.6407 53.5645 22.1461 53.5645 20.6252V15.04C53.5645 13.5191 53.1711 12.0245 53.04 11.4214V11.3165H56.0293V13.4929C57.052 11.7098 59.0186 10.6085 61.2737 11.3165L60.9066 14.096H60.8279C59.5955 13.0471 57.6026 12.5751 56.0293 14.2009V20.6252C56.0293 22.1461 56.4227 23.6407 56.5538 24.2701Z" fill="white"/>
<path d="M48.8589 8.3274C47.9149 8.3274 47.1021 7.56696 47.1021 6.59675C47.1021 5.65277 47.9149 4.89233 48.8589 4.89233C49.8291 4.89233 50.6158 5.65277 50.6158 6.59675C50.6158 7.56696 49.8291 8.3274 48.8589 8.3274ZM50.7207 24.2703V24.3489H47.2069V24.2703C47.338 23.6409 47.7314 22.1463 47.7314 20.6254L47.7576 15.0402C47.7576 13.5193 47.3643 12.0247 47.2332 11.4216V11.3167H50.1962V20.6254C50.1962 22.1463 50.5896 23.6409 50.7207 24.2703Z" fill="white"/>
<path d="M31.1479 5.5479V5.46924H38.6998C42.0038 5.46924 44.39 7.59321 44.39 10.2154C44.39 12.4705 42.7904 13.9127 40.85 14.5944C43.1313 15.1975 45.2553 16.666 45.2553 19.393C45.2553 22.6183 42.266 24.349 38.6998 24.349H31.1479V24.2703C31.2791 23.641 31.6724 22.1463 31.6724 20.6255V9.19274C31.6724 7.67187 31.2791 6.17723 31.1479 5.5479ZM37.7296 14.2011C40.2469 14.2011 41.5842 12.5491 41.5842 10.2154C41.5842 8.14387 40.4043 6.41322 37.9132 6.41322H34.2946V14.2011H37.7296ZM37.9132 23.405C41.086 23.405 42.4758 21.9366 42.4758 19.393C42.4758 16.666 40.5878 15.1975 37.9132 15.1975H34.2946V23.405H37.9132Z" fill="white"/>
<path fill-rule="evenodd" clip-rule="evenodd" d="M0 8.26551C0 7.47869 0.314948 6.81187 0.833432 6.37662C1.35217 5.94115 2.06386 5.74652 2.8391 5.88322L11.2948 7.37418C12.8342 7.64563 14.0757 9.12512 14.0757 10.6883C14.0757 11.4751 13.7607 12.142 13.2422 12.5772C12.7235 13.0127 12.0118 13.2073 11.2366 13.0706L7.71338 12.4494C7.12651 12.3459 6.60503 12.4945 6.23115 12.8081C5.85709 13.1218 5.61999 13.6097 5.61999 14.2059V17.7835C5.61999 18.5703 5.30505 19.2371 4.78656 19.6724C4.26782 20.1078 3.55614 20.3025 2.7809 20.1658C1.24144 19.8943 0 18.4148 0 16.8516V8.26551ZM18.6558 24.7329C18.6558 25.5197 18.3409 26.1865 17.8224 26.6218C17.3037 27.0572 16.592 27.2519 15.8167 27.1152L7.36106 25.6242C5.8216 25.3528 4.58016 23.8733 4.58016 22.3101C4.58016 21.5232 4.89511 20.8564 5.41359 20.4212C5.93233 19.9857 6.64402 19.7911 7.41926 19.9278L10.9425 20.549C11.5293 20.6525 12.0508 20.5039 12.4247 20.1903C12.7987 19.8766 13.0358 19.3887 13.0358 18.7924V15.2149C13.0358 14.4281 13.3508 13.7613 13.8693 13.326C14.388 12.8905 15.0997 12.6959 15.8749 12.8326C17.4144 13.1041 18.6558 14.5835 18.6558 16.1467V24.7329ZM0.94119 6.50498C0.463214 6.90623 0.167597 7.52475 0.167597 8.26551V16.8516C0.167597 18.3335 1.35064 19.7434 2.81 20.0007C3.53985 20.1294 4.2006 19.9455 4.6788 19.544C5.15678 19.1428 5.4524 18.5242 5.4524 17.7835V14.2059C5.4524 13.5636 5.70885 13.0274 6.12345 12.6796C6.53785 12.3321 7.11025 12.1728 7.74248 12.2843L11.2657 12.9056C11.9955 13.0343 12.6563 12.8503 13.1345 12.4489C13.6125 12.0476 13.9081 11.4291 13.9081 10.6883C13.9081 9.20645 12.725 7.79656 11.2657 7.53923L2.81 6.04827C2.08014 5.91957 1.4194 6.10354 0.94119 6.50498ZM17.7146 26.4934C18.1926 26.0921 18.4882 25.4736 18.4882 24.7329V16.1467C18.4882 14.6649 17.3052 13.255 15.8458 12.9977C15.116 12.869 14.4552 13.0529 13.977 13.4544C13.4991 13.8556 13.2034 14.4741 13.2034 15.2149V18.7924C13.2034 19.4347 12.947 19.971 12.5324 20.3187C12.118 20.6663 11.5456 20.8255 10.9134 20.714L7.39016 20.0928C6.6603 19.9641 5.99956 20.1481 5.52135 20.5495C5.04338 20.9508 4.74776 21.5693 4.74776 22.3101C4.74776 23.7919 5.9308 25.2018 7.39016 25.4591L15.8458 26.9501C16.5757 27.0788 17.2364 26.8948 17.7146 26.4934Z" fill="white"/>
<path d="M16.8413 15.74V12.1628C16.8413 11.4222 17.1369 10.8034 17.6147 10.4021L13.9771 13.4548L13.8071 13.615C13.4304 14.0122 13.2037 14.5666 13.2036 15.2146V18.7927L13.1919 19.0281C13.1372 19.5654 12.896 20.0138 12.5337 20.3181L16.1704 17.2664C16.585 16.9186 16.8413 16.3822 16.8413 15.74ZM16.9419 15.74C16.9419 16.4098 16.6737 16.9755 16.2349 17.3435L12.5972 20.3953L12.5327 20.3191L12.5005 20.28H12.5015L12.4692 20.2419C12.8593 19.9145 13.1039 19.4071 13.104 18.7927V15.2146C13.1041 14.4466 13.4106 13.7992 13.9126 13.3777L17.5503 10.3259L17.6792 10.4783C17.2254 10.8592 16.9419 11.4496 16.9419 12.1628V15.74Z" fill="white"/>
<path d="M17.615 10.4021C17.137 10.8033 16.8414 11.4219 16.8414 12.1626V15.7402C16.8414 16.3825 16.5849 16.9187 16.1703 17.2665L12.5333 20.3183C12.9476 19.9705 13.2038 19.4345 13.2038 18.7925L13.2038 15.215C13.2038 14.4742 13.4994 13.8557 13.9774 13.4544L17.615 10.4021Z" fill="white"/>
<path d="M8.38574 19.2581C8.38574 18.5173 8.68123 17.8986 9.15918 17.4973L5.52148 20.55L5.35156 20.7102C4.97476 21.1075 4.74813 21.6617 4.74805 22.3098C4.74805 23.7917 5.93126 25.2019 7.39062 25.4592L15.8457 26.9504C16.5756 27.0791 17.2366 26.8948 17.7148 26.4934L21.3516 23.4417C20.8734 23.8426 20.2128 24.0263 19.4834 23.8977L11.0283 22.4065C9.66012 22.1652 8.53467 20.9113 8.39941 19.5344L8.38574 19.2581ZM8.48535 19.2581C8.48547 20.6913 9.63441 22.06 11.0459 22.3088L19.501 23.7991C20.2032 23.9229 20.8332 23.746 21.2871 23.3655L21.3193 23.4036L21.3203 23.4026L21.3525 23.4417L21.3848 23.4797H21.3838L21.416 23.5188L17.7793 26.5706C17.277 26.9921 16.5858 27.1824 15.8291 27.0491L7.37305 25.5579C5.86589 25.2921 4.64844 23.8402 4.64844 22.3098C4.64853 21.5418 4.95502 20.8944 5.45703 20.4729L9.09473 17.4211L9.22363 17.5735C8.76983 17.9544 8.48535 18.5448 8.48535 19.2581Z" fill="white"/>
<path d="M9.15926 17.4973C8.68128 17.8986 8.38567 18.5171 8.38567 19.2578C8.38567 20.7397 9.56871 22.1496 11.0281 22.4069L19.4838 23.8979C20.2133 24.0265 20.8737 23.8428 21.3519 23.4418L17.7149 26.4935C17.2367 26.895 16.576 27.0789 15.8461 26.9502L7.39045 25.4593C5.93109 25.2019 4.74805 23.792 4.74805 22.3102C4.74805 21.5694 5.04366 20.9509 5.52163 20.5496L9.15926 17.4973Z" fill="white"/>
<path d="M3.80566 13.7996V5.21362C3.80567 4.4729 4.10116 3.85413 4.5791 3.45288L0.941406 6.50562L0.771484 6.66577C0.394683 7.06303 0.168056 7.6173 0.167969 8.26538V16.8523L0.181641 17.1287C0.316994 18.5055 1.44242 19.7595 2.81055 20.0007C3.44903 20.1133 4.03446 19.9866 4.49121 19.6843L4.67871 19.5447L8.31641 16.4929C7.89795 16.8439 7.33955 17.0278 6.71777 16.9822L6.44824 16.949C5.07999 16.7077 3.95451 15.4529 3.81934 14.0759L3.80566 13.7996ZM3.90527 13.7996C3.9053 15.2329 5.05428 16.6014 6.46582 16.8503C7.16805 16.974 7.79809 16.7964 8.25195 16.4158L8.28418 16.4539H8.28516L8.31641 16.4919L8.34863 16.53V16.531L8.38086 16.5691L4.74316 19.6208C4.24078 20.0425 3.54981 20.2328 2.79297 20.0994C1.28598 19.8336 0.0685992 18.3825 0.0683594 16.8523V8.26538C0.0684596 7.49735 0.374945 6.84995 0.876953 6.42847L4.51465 3.37671L4.64355 3.52905C4.18976 3.91 3.90528 4.50037 3.90527 5.21362V13.7996Z" fill="white"/>
<path d="M4.57919 3.45288C4.10121 3.85413 3.8056 4.47264 3.80559 5.21339V13.7995L1.98678 15.3257L0.167969 16.8518V8.26574C0.167974 7.52499 0.46359 6.90646 0.941562 6.50521L4.57919 3.45288Z" fill="white"/>
<path d="M3.80559 13.7995C3.80559 15.2814 4.98865 16.6913 6.44801 16.9486C7.17751 17.0772 7.83796 16.8935 8.31611 16.4925L4.67918 19.5442C4.20098 19.9457 3.54023 20.1296 2.81038 20.001C1.35102 19.7436 0.167969 18.3337 0.167969 16.8518L1.98678 15.3257L3.80559 13.7995Z" fill="white"/>
<path d="M9.69678 9.55038C10.1354 9.18259 10.7387 9.01714 11.3979 9.13339L14.9204 9.75448C15.6228 9.87834 16.2536 9.70164 16.7075 9.32089L16.7397 9.35897V9.358L16.772 9.39706L16.8042 9.43514H16.8032L16.8354 9.47421L13.1987 12.526C12.6964 12.9475 12.0052 13.1379 11.2485 13.0045L7.7251 12.3824C7.12004 12.2758 6.57816 12.4292 6.18799 12.7564L6.12354 12.6793L6.05908 12.6031L9.69678 9.55038ZM11.3804 9.23202C10.7481 9.12054 10.1756 9.27996 9.76123 9.62753L6.12354 12.6793C6.53792 12.3318 7.11054 12.1733 7.74268 12.2848L11.2661 12.9058C11.9958 13.0344 12.6562 12.8501 13.1343 12.4488L16.772 9.39706C16.3536 9.74799 15.7951 9.93285 15.1733 9.88729L14.9038 9.85311L11.3804 9.23202Z" fill="white"/>
<path d="M11.3802 9.23221C10.748 9.12073 10.1756 9.27995 9.76116 9.62752L6.12354 12.6799C6.53794 12.3323 7.11033 12.1731 7.74257 12.2845L11.3802 9.23221Z" fill="white"/>
<path d="M11.3802 9.23221L14.9034 9.85345C15.6329 9.98209 16.2933 9.79836 16.7715 9.39733L13.1346 12.4491C12.6564 12.8505 11.9956 13.0345 11.2658 12.9058L7.74257 12.2845L11.3802 9.23221Z" fill="white"/>
<path d="M3.80563 5.21333C3.80563 3.73146 4.98867 2.73877 6.44803 2.9961L14.9037 4.48706C16.3631 4.74439 17.5461 6.15428 17.5461 7.63615C17.5461 9.11803 16.3631 10.1107 14.9037 9.85339L11.3805 9.23216C10.1157 9.00914 9.09043 9.86948 9.09043 11.1538V14.7313C9.09043 16.2132 7.90739 17.2059 6.44803 16.9486C4.98867 16.6912 3.80563 15.2813 3.80563 13.7995V5.21333Z" fill="white"/>
<path d="M22.1263 21.6807C22.1263 23.1626 20.9432 24.1553 19.4839 23.8979L11.0282 22.407C9.56883 22.1497 8.38579 20.7398 8.38579 19.2579C8.38579 17.776 9.56883 16.7833 11.0282 17.0406L14.5514 17.6619C15.8162 17.8849 16.8415 17.0246 16.8415 15.7403V12.1627C16.8415 10.6809 18.0245 9.68816 19.4839 9.94549C20.9432 10.2028 22.1263 11.6127 22.1263 13.0946V21.6807Z" fill="white"/>
<path fill-rule="evenodd" clip-rule="evenodd" d="M3.66406 5.18837C3.66406 3.62711 4.91049 2.58124 6.44803 2.85235L14.9037 4.34331C16.4413 4.61442 17.6877 6.09985 17.6877 7.66112C17.6877 9.22238 16.4413 10.2683 14.9037 9.99714L11.3805 9.37591C10.1939 9.16668 9.23199 9.97383 9.23199 11.1787V14.7563C9.23199 16.3175 7.98557 17.3634 6.44803 17.0923C4.91049 16.8212 3.66406 15.3358 3.66406 13.7745V5.18837ZM22.2678 21.7057C22.2678 23.2669 21.0214 24.3128 19.4839 24.0417L11.0282 22.5507C9.49065 22.2796 8.24422 20.7942 8.24422 19.2329C8.24422 17.6717 9.49065 16.6258 11.0282 16.8969L14.5514 17.5181C15.738 17.7274 16.6999 16.9202 16.6999 15.7153V12.1378C16.6999 10.5765 17.9463 9.53062 19.4839 9.80174C21.0214 10.0728 22.2678 11.5583 22.2678 13.1195V21.7057ZM6.44803 2.9961C4.98867 2.73877 3.80563 3.73146 3.80563 5.21333V13.7995C3.80563 15.2813 4.98867 16.6912 6.44803 16.9486C7.90739 17.2059 9.09043 16.2132 9.09043 14.7313V11.1538C9.09043 9.86948 10.1157 9.00914 11.3805 9.23216L14.9037 9.85339C16.3631 10.1107 17.5461 9.11803 17.5461 7.63615C17.5461 6.15428 16.3631 4.74439 14.9037 4.48706L6.44803 2.9961ZM19.4839 23.8979C20.9432 24.1553 22.1263 23.1626 22.1263 21.6807V13.0946C22.1263 11.6127 20.9432 10.2028 19.4839 9.94549C18.0245 9.68816 16.8415 10.6809 16.8415 12.1627V15.7403C16.8415 17.0246 15.8162 17.8849 14.5514 17.6619L11.0282 17.0406C9.56883 16.7833 8.38579 17.776 8.38579 19.2579C8.38579 20.7398 9.56883 22.1497 11.0282 22.407L19.4839 23.8979Z" fill="white"/>
<defs>
<linearGradient id="paint0_linear_3795_1559" x1="12.686" y1="14.83" x2="15.3462" y2="17.7913" gradientUnits="userSpaceOnUse">
<stop stop-color="#1AB27C"/>
<stop offset="0.300951" stop-color="#137050"/>
</linearGradient>
<linearGradient id="paint1_linear_3795_1559" x1="6.56487" y1="19.852" x2="14.0548" y2="29.2367" gradientUnits="userSpaceOnUse">
<stop stop-color="#1AB27C"/>
<stop offset="0.103475" stop-color="#0D533A"/>
<stop offset="0.889449" stop-color="#0D533A"/>
<stop offset="1" stop-color="#1AB27C"/>
</linearGradient>
<linearGradient id="paint2_linear_3795_1559" x1="2.20454" y1="5.59689" x2="10.1347" y2="14.7729" gradientUnits="userSpaceOnUse">
<stop stop-color="#1AB27C"/>
<stop offset="0.15" stop-color="#137050"/>
<stop offset="0.9" stop-color="#137050"/>
<stop offset="1" stop-color="#1AB27C"/>
</linearGradient>
<linearGradient id="paint3_linear_3795_1559" x1="2.20454" y1="5.59689" x2="10.1347" y2="14.7729" gradientUnits="userSpaceOnUse">
<stop stop-color="#1AB27C"/>
<stop offset="0.15" stop-color="#137050"/>
<stop offset="0.9" stop-color="#137050"/>
<stop offset="1" stop-color="#1AB27C"/>
</linearGradient>
<linearGradient id="paint4_linear_3795_1559" x1="6.92404" y1="15.6869" x2="8.42987" y2="17.1927" gradientUnits="userSpaceOnUse">
<stop offset="0.399776" stop-color="#0D533A"/>
<stop offset="1" stop-color="#1AB27C"/>
</linearGradient>
<linearGradient id="paint5_linear_3795_1559" x1="6.92404" y1="15.6869" x2="8.42987" y2="17.1927" gradientUnits="userSpaceOnUse">
<stop offset="0.399776" stop-color="#0D533A"/>
<stop offset="1" stop-color="#1AB27C"/>
</linearGradient>
<linearGradient id="paint6_linear_3795_1559" x1="12.966" y1="2.80957" x2="12.966" y2="24.0845" gradientUnits="userSpaceOnUse">
<stop stop-color="#16845D"/>
<stop offset="1" stop-color="#B5FAC4"/>
</linearGradient>
<linearGradient id="paint7_linear_3795_1559" x1="12.966" y1="2.80957" x2="12.966" y2="24.0845" gradientUnits="userSpaceOnUse">
<stop stop-color="#16845D"/>
<stop offset="1" stop-color="#B5FAC4"/>
</linearGradient>
</defs>
</svg>
