<svg xmlns="http://www.w3.org/2000/svg" width="293" height="46" viewBox="0 0 293 46" fill="none"><g clip-path="url(#clip0_2631_400)"><path d="M89.6799 37.0769V8.92578H93.8623V37.0692H89.6799V37.0769Z" fill="white"></path><path d="M100.234 37.0769V8.92578H118.188C120.098 8.92578 121.685 9.28808 122.94 10.0127C124.196 10.7373 125.143 11.7316 125.767 12.9881C126.399 14.2446 126.707 15.6706 126.707 17.2586C126.707 19.1163 126.26 20.7505 125.374 22.1611C124.489 23.5718 123.21 24.5893 121.539 25.2137L127.57 37.0692H122.94L117.403 25.9537H104.409V37.0692H100.226L100.234 37.0769ZM104.416 22.4309H117.495C119.082 22.4309 120.306 21.9684 121.184 21.0357C122.055 20.103 122.494 18.8619 122.494 17.3048C122.494 16.295 122.301 15.4317 121.916 14.7225C121.531 14.0133 120.969 13.466 120.214 13.0806C119.459 12.6952 118.55 12.5025 117.487 12.5025H104.409V22.4309H104.416Z" fill="white"></path><path d="M199.099 37.0769V8.92578H203.282V37.0692H199.099V37.0769Z" fill="white"></path><path d="M248.447 37.5676C245.166 37.5676 242.332 37.0203 239.944 35.9257C237.549 34.8311 235.723 33.2046 234.452 31.0463C233.181 28.8879 232.55 26.2054 232.55 23.0064C232.55 19.8074 233.189 17.094 234.452 14.9434C235.723 12.7928 237.556 11.174 239.944 10.0794C242.332 8.9848 245.174 8.4375 248.447 8.4375C251.721 8.4375 254.594 8.9848 256.974 10.0794C259.354 11.174 261.179 12.7928 262.45 14.9434C263.721 17.094 264.353 19.7766 264.353 23.0064C264.353 26.2362 263.721 28.8879 262.45 31.0463C261.179 33.2046 259.354 34.8388 256.974 35.9257C254.594 37.0203 251.752 37.5676 248.447 37.5676ZM248.447 33.9986C250.173 33.9986 251.736 33.7905 253.138 33.3819C254.548 32.9734 255.772 32.3336 256.804 31.4702C257.844 30.6069 258.645 29.5123 259.2 28.1865C259.762 26.8606 260.039 25.2804 260.039 23.4458V22.5439C260.039 20.7093 259.762 19.1291 259.2 17.7878C258.637 16.4465 257.836 15.3519 256.804 14.504C255.765 13.6561 254.54 13.024 253.138 12.6155C251.729 12.2069 250.165 11.9988 248.447 11.9988C246.73 11.9988 245.158 12.2069 243.757 12.6155C242.347 13.024 241.122 13.6561 240.09 14.504C239.05 15.3519 238.249 16.4465 237.695 17.7878C237.133 19.1291 236.855 20.717 236.855 22.5439V23.4458C236.855 25.2804 237.133 26.8606 237.695 28.1865C238.257 29.5123 239.05 30.6069 240.09 31.4702C241.13 32.3336 242.355 32.9657 243.757 33.3819C245.166 33.7905 246.73 33.9986 248.447 33.9986Z" fill="white"></path><path d="M230.971 36.7824H218.363C213.287 36.7824 209.151 32.6507 209.151 27.5631V8.87793H212.778V27.5631C212.778 30.6465 215.282 33.1517 218.363 33.1517H230.971V36.7824Z" fill="white"></path><path d="M163.616 37.0753H159.988V15.2374C159.988 13.449 158.687 12.709 157.577 12.6165C156.468 12.5163 155.059 13.0482 154.774 14.8134L151.685 33.753C151.654 33.9303 151.6 34.0998 151.523 34.2617C150.884 35.5722 149.575 36.3892 148.119 36.3892C146.64 36.4201 145.354 35.5876 144.699 34.2849C144.622 34.123 144.56 33.9457 144.53 33.7684L141.379 14.7749C141.079 12.9634 139.623 12.4315 138.491 12.524C137.343 12.6165 136.011 13.3796 136.011 15.222V37.0753H132.383V15.222C132.383 11.2136 135.395 9.14002 138.191 8.90877C140.994 8.68522 144.299 10.2269 144.953 14.1813L148.034 32.7509C148.034 32.7509 148.073 32.7586 148.096 32.7586C148.096 32.7586 148.142 32.7586 148.165 32.7509L151.184 14.2276C151.824 10.3117 155.105 8.78543 157.862 9.00127C160.628 9.22481 163.608 11.2752 163.608 15.2374V37.0753H163.616Z" fill="white"></path><path d="M63.6316 18.4633L60.4736 18.4556L60.4813 9.23633H83.3111V12.4045H63.6393L63.6316 18.4633Z" fill="white"></path><path d="M63.6316 37.0634H60.4736V28.1217C60.4736 24.2366 63.6316 21.0762 67.5136 21.0762H83.3034V24.2366H67.5136C65.3723 24.2366 63.6316 25.9787 63.6316 28.1217V37.0634Z" fill="white"></path><path d="M63.8611 18.4631L60.241 18.4554L60.2487 9.00488H83.3095V12.6355H63.8688L63.8611 18.4631Z" fill="white"></path><path d="M63.8599 37.0632H60.2321V28.1215C60.2321 24.1054 63.4978 20.8447 67.5031 20.8447H83.2929V24.4754H67.5031C65.4928 24.4754 63.8599 26.1096 63.8599 28.1215V37.0632Z" fill="white"></path><path d="M265.925 8.92578V12.5796L277.117 12.5873V37.0769H281.299V12.5873V12.5796H292.529V8.92578H265.925Z" fill="white"></path><path d="M193.855 13.096C193.185 11.801 192.206 10.7758 190.92 10.0358C189.634 9.29578 188.062 8.92578 186.206 8.92578H169.276V37.0692H173.459V26.3622V22.7932V12.4948H185.475C186.599 12.4948 187.539 12.7029 188.301 13.1114C189.064 13.52 189.649 14.1135 190.042 14.8767C190.435 15.6398 190.635 16.5571 190.635 17.6286C190.635 19.2165 190.181 20.473 189.279 21.4057C188.378 22.3384 187.107 22.8009 185.467 22.8009H179.012L174.63 26.3699H186.121C187.924 26.3699 189.48 25.9999 190.774 25.2599C192.068 24.5199 193.077 23.487 193.785 22.1611C194.494 20.8353 194.848 19.309 194.848 17.5823C194.848 15.8556 194.509 14.391 193.847 13.0883L193.855 13.096Z" fill="white"></path><path d="M21.5996 45.0411V28.5143C21.5996 26.0245 19.5816 24.0049 17.0938 24.0049H0.572266" stroke="white" stroke-width="3.40238" stroke-miterlimit="10"></path><path d="M15.6758 29.9111L10.6693 34.9216" stroke="white" stroke-width="3.40238" stroke-miterlimit="10"></path><path d="M28.4331 30.2021L38.4461 40.2308" stroke="white" stroke-width="3.40238" stroke-miterlimit="10"></path><path d="M31.0115 23.9619H45.1761" stroke="white" stroke-width="3.40238" stroke-miterlimit="10"></path><path d="M28.4331 17.7309L38.4461 7.70996" stroke="white" stroke-width="3.40238" stroke-miterlimit="10"></path><path d="M22.2017 15.1465V0.970703" stroke="white" stroke-width="3.40238" stroke-miterlimit="10"></path><path d="M15.9687 17.7309L5.948 7.70996" stroke="white" stroke-width="3.40238" stroke-miterlimit="10"></path></g><defs><clipPath id="clip0_2631_400"><rect width="291.957" height="44.069" fill="white" transform="translate(0.572266 0.96582)"></rect></clipPath></defs></svg>