<svg width="317" height="66" viewBox="0 0 317 66" fill="none" xmlns="http://www.w3.org/2000/svg">
<path d="M40.3822 0H8.53387C4.2587 0 0.792969 3.46574 0.792969 7.7409V40.9163C0.792969 45.1915 4.2587 48.6572 8.53387 48.6572H30.4296C30.7961 48.6572 31.0931 48.3602 31.0931 47.9937V39.8104C31.0931 39.444 30.7961 39.1469 30.4296 39.1469H15.1689C12.726 39.1469 10.7456 37.1666 10.7456 34.7236V14.1548C10.7456 11.7119 12.726 9.73142 15.1689 9.73142H33.9683C36.4114 9.73142 38.3917 11.7119 38.3917 14.1548V55.2923C38.3917 55.6587 38.6887 55.9558 39.0552 55.9558H47.4597C47.8261 55.9558 48.1232 55.6587 48.1232 55.2923V7.7409C48.1232 3.46574 44.6574 0 40.3822 0V0Z" fill="white"/>
<path fill-rule="evenodd" clip-rule="evenodd" d="M55.197 39.8095C55.197 39.4433 54.8997 39.146 54.5335 39.146H43.0326C42.6664 39.146 42.3691 39.4433 42.3691 39.8095V47.9928C42.3691 48.359 42.6664 48.6563 43.0326 48.6563H54.5335C54.8997 48.6563 55.197 48.359 55.197 47.9928V39.8095Z" fill="white"/>
<path d="M48.122 39.146H38.3906V48.6563H48.122V39.146Z" fill="white"/>
<path d="M93.304 11.504H102.088V47.504H93.304L92.908 43.04C91.924 44.648 90.616 45.956 88.984 46.964C87.376 47.948 85.468 48.44 83.26 48.44C80.596 48.44 78.1 47.936 75.772 46.928C73.444 45.92 71.392 44.528 69.616 42.752C67.864 40.976 66.484 38.924 65.476 36.596C64.492 34.268 64 31.772 64 29.108C64 26.54 64.468 24.128 65.404 21.872C66.364 19.616 67.696 17.636 69.4 15.932C71.104 14.228 73.072 12.896 75.304 11.936C77.536 10.976 79.936 10.496 82.504 10.496C84.88 10.496 87.004 11.024 88.876 12.08C90.772 13.136 92.38 14.48 93.7 16.112L93.304 11.504ZM83.044 39.98C84.916 39.98 86.572 39.512 88.012 38.576C89.452 37.64 90.58 36.38 91.396 34.796C92.212 33.188 92.62 31.424 92.62 29.504C92.62 27.56 92.212 25.796 91.396 24.212C90.58 22.604 89.44 21.332 87.976 20.396C86.536 19.46 84.892 18.992 83.044 18.992C81.196 18.992 79.504 19.472 77.968 20.432C76.456 21.368 75.244 22.628 74.332 24.212C73.444 25.796 73 27.56 73 29.504C73 31.448 73.456 33.212 74.368 34.796C75.28 36.38 76.492 37.64 78.004 38.576C79.54 39.512 81.22 39.98 83.044 39.98Z" fill="white"/>
<path d="M108.866 47.504L108.83 11.504H117.614L117.65 14.708C118.874 13.412 120.338 12.392 122.042 11.648C123.746 10.88 125.582 10.496 127.55 10.496C128.87 10.496 130.19 10.688 131.51 11.072L128.054 19.928C127.142 19.568 126.23 19.388 125.318 19.388C123.902 19.388 122.606 19.736 121.43 20.432C120.278 21.104 119.354 22.028 118.658 23.204C117.986 24.356 117.65 25.64 117.65 27.056V47.504H108.866Z" fill="white"/>
<path d="M160.573 11.504H169.357V47.504H160.573L160.177 43.04C159.193 44.648 157.885 45.956 156.253 46.964C154.645 47.948 152.737 48.44 150.529 48.44C147.865 48.44 145.369 47.936 143.041 46.928C140.713 45.92 138.661 44.528 136.885 42.752C135.133 40.976 133.753 38.924 132.745 36.596C131.761 34.268 131.269 31.772 131.269 29.108C131.269 26.54 131.737 24.128 132.673 21.872C133.633 19.616 134.965 17.636 136.669 15.932C138.373 14.228 140.341 12.896 142.573 11.936C144.805 10.976 147.205 10.496 149.773 10.496C152.149 10.496 154.273 11.024 156.145 12.08C158.041 13.136 159.649 14.48 160.969 16.112L160.573 11.504ZM150.313 39.98C152.185 39.98 153.841 39.512 155.281 38.576C156.721 37.64 157.849 36.38 158.665 34.796C159.481 33.188 159.889 31.424 159.889 29.504C159.889 27.56 159.481 25.796 158.665 24.212C157.849 22.604 156.709 21.332 155.245 20.396C153.805 19.46 152.161 18.992 150.313 18.992C148.465 18.992 146.773 19.472 145.237 20.432C143.725 21.368 142.513 22.628 141.601 24.212C140.713 25.796 140.269 27.56 140.269 29.504C140.269 31.448 140.725 33.212 141.637 34.796C142.549 36.38 143.761 37.64 145.273 38.576C146.809 39.512 148.489 39.98 150.313 39.98Z" fill="white"/>
<path d="M202.107 11.504H210.891V48.188C210.891 50.78 210.363 53.132 209.307 55.244C208.251 57.38 206.811 59.204 204.987 60.716C203.163 62.252 201.075 63.428 198.723 64.244C196.371 65.084 193.899 65.504 191.307 65.504C188.787 65.504 186.363 64.988 184.035 63.956C181.707 62.924 179.643 61.508 177.843 59.708C176.067 57.932 174.711 55.904 173.775 53.624L181.803 49.988C182.283 51.308 183.003 52.46 183.963 53.444C184.947 54.452 186.075 55.232 187.347 55.784C188.619 56.36 189.939 56.648 191.307 56.648C192.699 56.648 194.031 56.456 195.303 56.072C196.599 55.688 197.763 55.124 198.795 54.38C199.827 53.66 200.631 52.772 201.207 51.716C201.807 50.684 202.107 49.508 202.107 48.188V43.112C200.979 44.696 199.563 45.98 197.859 46.964C196.155 47.948 194.187 48.44 191.955 48.44C189.363 48.44 186.939 47.948 184.683 46.964C182.427 45.98 180.435 44.624 178.707 42.896C177.003 41.144 175.659 39.128 174.675 36.848C173.715 34.568 173.235 32.12 173.235 29.504C173.235 26.888 173.715 24.44 174.675 22.16C175.659 19.88 177.003 17.876 178.707 16.148C180.435 14.396 182.427 13.028 184.683 12.044C186.939 11.06 189.363 10.568 191.955 10.568C194.187 10.568 196.155 11.06 197.859 12.044C199.563 13.004 200.979 14.276 202.107 15.86V11.504ZM192.063 39.98C193.911 39.98 195.543 39.512 196.959 38.576C198.399 37.616 199.527 36.344 200.343 34.76C201.159 33.152 201.567 31.4 201.567 29.504C201.567 27.584 201.147 25.832 200.307 24.248C199.491 22.664 198.363 21.392 196.923 20.432C195.507 19.472 193.887 18.992 192.063 18.992C190.263 18.992 188.619 19.472 187.131 20.432C185.643 21.368 184.455 22.628 183.567 24.212C182.679 25.796 182.235 27.56 182.235 29.504C182.235 31.448 182.679 33.212 183.567 34.796C184.455 36.38 185.643 37.64 187.131 38.576C188.619 39.512 190.263 39.98 192.063 39.98Z" fill="white"/>
<path d="M234.116 48.44C230.804 48.44 227.78 47.588 225.044 45.884C222.332 44.18 220.16 41.9 218.528 39.044C216.92 36.164 216.116 32.984 216.116 29.504C216.116 26.864 216.584 24.404 217.52 22.124C218.456 19.82 219.74 17.804 221.372 16.076C223.028 14.324 224.948 12.956 227.132 11.972C229.316 10.988 231.644 10.496 234.116 10.496C237.428 10.496 240.44 11.348 243.152 13.052C245.888 14.756 248.06 17.048 249.668 19.928C251.3 22.808 252.116 26 252.116 29.504C252.116 32.12 251.648 34.568 250.712 36.848C249.776 39.128 248.48 41.144 246.824 42.896C245.192 44.624 243.284 45.98 241.1 46.964C238.94 47.948 236.612 48.44 234.116 48.44ZM234.116 39.656C235.868 39.656 237.44 39.188 238.832 38.252C240.224 37.316 241.316 36.08 242.108 34.544C242.924 33.008 243.332 31.328 243.332 29.504C243.332 27.632 242.912 25.928 242.072 24.392C241.256 22.832 240.14 21.596 238.724 20.684C237.332 19.748 235.796 19.28 234.116 19.28C232.388 19.28 230.828 19.748 229.436 20.684C228.044 21.62 226.94 22.868 226.124 24.428C225.308 25.988 224.9 27.68 224.9 29.504C224.9 31.4 225.32 33.116 226.16 34.652C227 36.188 228.116 37.412 229.508 38.324C230.924 39.212 232.46 39.656 234.116 39.656Z" fill="white"/>
<path d="M257.325 47.504L257.289 11.504H266.073L266.109 14.708C267.333 13.412 268.797 12.392 270.501 11.648C272.205 10.88 274.041 10.496 276.009 10.496C277.329 10.496 278.649 10.688 279.969 11.072L276.513 19.928C275.601 19.568 274.689 19.388 273.777 19.388C272.361 19.388 271.065 19.736 269.889 20.432C268.737 21.104 267.813 22.028 267.117 23.204C266.445 24.356 266.109 25.64 266.109 27.056V47.504H257.325Z" fill="white"/>
<path d="M316.692 24.752V47.504H307.908V27.056C307.908 25.64 307.56 24.356 306.864 23.204C306.168 22.028 305.232 21.104 304.056 20.432C302.904 19.736 301.62 19.388 300.204 19.388C298.788 19.388 297.492 19.736 296.316 20.432C295.164 21.104 294.24 22.028 293.544 23.204C292.872 24.356 292.536 25.64 292.536 27.056V47.504H283.752L283.716 11.504H292.5L292.536 14.708C293.76 13.412 295.224 12.392 296.928 11.648C298.632 10.88 300.468 10.496 302.436 10.496C305.052 10.496 307.44 11.144 309.6 12.44C311.76 13.712 313.476 15.428 314.748 17.588C316.044 19.724 316.692 22.112 316.692 24.752Z" fill="white"/>
<defs>
<linearGradient id="paint0_linear_530_71" x1="44.3633" y1="49.0995" x2="0.488129" y2="-4.2836" gradientUnits="userSpaceOnUse">
<stop stop-color="#9333EA"/>
<stop offset="1" stop-color="#B977F9"/>
</linearGradient>
</defs>
</svg>
